<svg width="213" height="72" viewBox="0 0 213 72" fill="none" xmlns="http://www.w3.org/2000/svg">
<g filter="url(#filter0_i_128_328)">
<path d="M153.719 34.4539C151.924 34.3414 150.389 33.0407 150.233 31.2434C149.875 27.1139 150.595 23.2219 152.352 19.9272C154.531 15.8391 158.199 12.8714 162.852 11.4318C167.504 9.99223 172.913 10.1514 178.336 11.8875C183.758 13.6236 188.928 16.8513 193.135 21.1274C197.342 25.4035 200.379 30.5182 201.831 35.7687C203.282 41.0193 203.075 46.1482 201.239 50.4508C199.404 54.7535 196.029 58.0189 191.578 59.7984C187.964 61.243 183.786 61.6508 179.433 61.0066C177.622 60.7386 176.387 59.1022 176.393 57.2663L176.407 53.2543C176.415 50.645 178.927 48.8104 181.505 48.4666C182.382 48.3496 183.222 48.1336 184.009 47.8192C186.23 46.931 187.915 45.301 188.831 43.1533C189.748 41.0056 189.851 38.4454 189.126 35.8246C188.402 33.2037 186.886 30.6507 184.786 28.5162C182.686 26.3818 180.105 24.7706 177.399 23.904C174.692 23.0374 171.992 22.958 169.67 23.6766C167.347 24.3951 165.516 25.8765 164.428 27.9171C164.102 28.5286 163.848 29.1813 163.666 29.866C162.987 32.4211 160.997 34.9103 158.366 34.7453L153.719 34.4539Z" fill="#A1CDF1"/>
</g>
<g filter="url(#filter1_i_128_328)">
<path d="M151.21 34.2966C150.897 34.277 150.634 34.0499 150.576 33.7405C149.63 28.6941 150.244 23.8854 152.347 19.9349C154.524 15.8481 158.187 12.8797 162.834 11.4372C167.482 9.99464 172.886 10.1485 178.305 11.8778C183.725 13.607 188.894 16.8268 193.103 21.0955C197.313 25.3641 200.357 30.4725 201.817 35.7196C203.277 40.9668 203.083 46.0956 201.26 50.4025C199.437 54.7094 196.075 57.9833 191.636 59.775C187.333 61.5114 182.223 61.7732 176.966 60.5326C176.67 60.4628 176.464 60.1962 176.464 59.8915V59.8915C176.464 59.458 176.871 59.1408 177.293 59.2348C182.13 60.312 186.822 60.0383 190.787 58.4381C194.978 56.7467 198.152 53.656 199.873 49.59C201.594 45.5241 201.777 40.6822 200.399 35.7286C199.02 30.775 196.146 25.9525 192.172 21.9226C188.198 17.8928 183.318 14.8531 178.202 13.2206C173.086 11.5881 167.984 11.4429 163.597 12.8047C159.209 14.1666 155.751 16.9688 153.697 20.827C151.768 24.4501 151.165 28.8377 151.952 33.4529C152.029 33.9078 151.669 34.3254 151.21 34.2966V34.2966Z" fill="#9E4770" fill-opacity="0.9"/>
</g>
<path d="M158.427 34.8064C157.74 31.2319 158.199 27.8682 159.741 25.1699C161.283 22.4716 163.834 20.5687 167.049 19.7183C170.265 18.8678 173.99 19.1109 177.722 20.4145C181.453 21.7182 185.011 24.0197 187.914 27.008C190.818 29.9963 192.927 33.5275 193.957 37.1244C194.987 40.7213 194.888 44.2107 193.674 47.121C192.46 50.0313 190.188 52.2223 187.167 53.3981C184.146 54.5738 180.52 54.6776 176.78 53.6954L176.675 49.1765C179.416 49.8962 182.072 49.8202 184.286 48.9587C186.5 48.0973 188.164 46.492 189.053 44.3597C189.943 42.2274 190.015 39.6708 189.261 37.0354C188.506 34.4001 186.961 31.8129 184.833 29.6234C182.706 27.4339 180.099 25.7477 177.366 24.7926C174.632 23.8374 171.902 23.6593 169.546 24.2824C167.19 24.9055 165.321 26.2997 164.191 28.2767C163.062 30.2537 162.726 32.7181 163.229 35.3371L158.427 34.8064Z" fill="#91B9DA" fill-opacity="0.8"/>
<g filter="url(#filter2_f_128_328)">
<path d="M155.59 34.9769C155.471 34.9689 155.37 34.8818 155.346 34.7637C154.47 30.4395 154.963 26.319 156.764 22.9577C158.592 19.5447 161.677 17.0835 165.591 15.9151C169.505 14.7468 174.054 14.9291 178.608 16.4369C183.162 17.9447 187.496 20.7033 191.008 24.3303C194.521 27.9574 197.038 32.2733 198.211 36.6799C199.384 41.0865 199.155 45.3657 197.556 48.9242C195.956 52.4828 193.066 55.1446 189.285 56.5408C185.556 57.9175 181.144 57.9963 176.643 56.769C176.531 56.7385 176.455 56.6348 176.457 56.5185V56.5185C176.461 56.3527 176.62 56.2351 176.78 56.2778C181.119 57.4369 185.369 57.3486 188.966 56.0206C192.649 54.6605 195.465 52.0674 197.023 48.6007C198.581 45.134 198.805 40.9654 197.662 36.6726C196.519 32.3797 194.067 28.1752 190.645 24.6418C187.223 21.1084 183.002 18.4211 178.565 16.9522C174.128 15.4833 169.697 15.3057 165.884 16.4439C162.071 17.5821 159.065 19.9798 157.285 23.3046C155.552 26.5392 155.062 30.4954 155.873 34.6517C155.907 34.8268 155.768 34.9887 155.59 34.9769V34.9769Z" fill="#7998B1"/>
<path d="M155.59 34.9769C155.471 34.9689 155.37 34.8818 155.346 34.7637C154.47 30.4395 154.963 26.319 156.764 22.9577C158.592 19.5447 161.677 17.0835 165.591 15.9151C169.505 14.7468 174.054 14.9291 178.608 16.4369C183.162 17.9447 187.496 20.7033 191.008 24.3303C194.521 27.9574 197.038 32.2733 198.211 36.6799C199.384 41.0865 199.155 45.3657 197.556 48.9242C195.956 52.4828 193.066 55.1446 189.285 56.5408C185.556 57.9175 181.144 57.9963 176.643 56.769C176.531 56.7385 176.455 56.6348 176.457 56.5185V56.5185C176.461 56.3527 176.62 56.2351 176.78 56.2778C181.119 57.4369 185.369 57.3486 188.966 56.0206C192.649 54.6605 195.465 52.0674 197.023 48.6007C198.581 45.134 198.805 40.9654 197.662 36.6726C196.519 32.3797 194.067 28.1752 190.645 24.6418C187.223 21.1084 183.002 18.4211 178.565 16.9522C174.128 15.4833 169.697 15.3057 165.884 16.4439C162.071 17.5821 159.065 19.9798 157.285 23.3046C155.552 26.5392 155.062 30.4954 155.873 34.6517C155.907 34.8268 155.768 34.9887 155.59 34.9769V34.9769Z" fill="#7998B1"/>
<path d="M155.59 34.9769C155.471 34.9689 155.37 34.8818 155.346 34.7637C154.47 30.4395 154.963 26.319 156.764 22.9577C158.592 19.5447 161.677 17.0835 165.591 15.9151C169.505 14.7468 174.054 14.9291 178.608 16.4369C183.162 17.9447 187.496 20.7033 191.008 24.3303C194.521 27.9574 197.038 32.2733 198.211 36.6799C199.384 41.0865 199.155 45.3657 197.556 48.9242C195.956 52.4828 193.066 55.1446 189.285 56.5408C185.556 57.9175 181.144 57.9963 176.643 56.769C176.531 56.7385 176.455 56.6348 176.457 56.5185V56.5185C176.461 56.3527 176.62 56.2351 176.78 56.2778C181.119 57.4369 185.369 57.3486 188.966 56.0206C192.649 54.6605 195.465 52.0674 197.023 48.6007C198.581 45.134 198.805 40.9654 197.662 36.6726C196.519 32.3797 194.067 28.1752 190.645 24.6418C187.223 21.1084 183.002 18.4211 178.565 16.9522C174.128 15.4833 169.697 15.3057 165.884 16.4439C162.071 17.5821 159.065 19.9798 157.285 23.3046C155.552 26.5392 155.062 30.4954 155.873 34.6517C155.907 34.8268 155.768 34.9887 155.59 34.9769V34.9769Z" fill="#7998B1"/>
</g>
<g filter="url(#filter3_f_128_328)">
<path d="M158.661 34.7233C158.568 34.7144 158.491 34.6471 158.47 34.556C157.633 30.9814 157.938 27.6081 159.347 24.8921C160.775 22.1374 163.267 20.1952 166.478 19.3345C169.688 18.4738 173.458 18.7373 177.266 20.0885C181.073 21.4396 184.728 23.8115 187.726 26.8754C190.723 29.9394 192.914 33.5436 193.995 37.1886C195.075 40.8337 194.992 44.339 193.757 47.2188C192.521 50.0986 190.195 52.2103 187.1 53.2612C184.044 54.2988 180.388 54.2516 176.628 53.1277C176.542 53.1021 176.483 53.0228 176.482 52.9329V52.9329C176.481 52.7944 176.615 52.6949 176.747 52.7337C180.366 53.7922 183.88 53.8257 186.823 52.8264C189.838 51.8027 192.105 49.7455 193.308 46.94C194.512 44.1346 194.593 40.7198 193.54 37.1689C192.487 33.6179 190.353 30.1068 187.433 27.1219C184.513 24.1371 180.952 21.8264 177.243 20.5102C173.534 19.1939 169.861 18.9372 166.733 19.7757C163.606 20.6142 161.178 22.5062 159.786 25.1898C158.434 27.7971 158.126 31.0261 158.897 34.452C158.93 34.5994 158.811 34.7377 158.661 34.7233V34.7233Z" fill="#7998B1"/>
<path d="M158.661 34.7233C158.568 34.7144 158.491 34.6471 158.47 34.556C157.633 30.9814 157.938 27.6081 159.347 24.8921C160.775 22.1374 163.267 20.1952 166.478 19.3345C169.688 18.4738 173.458 18.7373 177.266 20.0885C181.073 21.4396 184.728 23.8115 187.726 26.8754C190.723 29.9394 192.914 33.5436 193.995 37.1886C195.075 40.8337 194.992 44.339 193.757 47.2188C192.521 50.0986 190.195 52.2103 187.1 53.2612C184.044 54.2988 180.388 54.2516 176.628 53.1277C176.542 53.1021 176.483 53.0228 176.482 52.9329V52.9329C176.481 52.7944 176.615 52.6949 176.747 52.7337C180.366 53.7922 183.88 53.8257 186.823 52.8264C189.838 51.8027 192.105 49.7455 193.308 46.94C194.512 44.1346 194.593 40.7198 193.54 37.1689C192.487 33.6179 190.353 30.1068 187.433 27.1219C184.513 24.1371 180.952 21.8264 177.243 20.5102C173.534 19.1939 169.861 18.9372 166.733 19.7757C163.606 20.6142 161.178 22.5062 159.786 25.1898C158.434 27.7971 158.126 31.0261 158.897 34.452C158.93 34.5994 158.811 34.7377 158.661 34.7233V34.7233Z" fill="#7998B1"/>
<path d="M158.661 34.7233C158.568 34.7144 158.491 34.6471 158.47 34.556C157.633 30.9814 157.938 27.6081 159.347 24.8921C160.775 22.1374 163.267 20.1952 166.478 19.3345C169.688 18.4738 173.458 18.7373 177.266 20.0885C181.073 21.4396 184.728 23.8115 187.726 26.8754C190.723 29.9394 192.914 33.5436 193.995 37.1886C195.075 40.8337 194.992 44.339 193.757 47.2188C192.521 50.0986 190.195 52.2103 187.1 53.2612C184.044 54.2988 180.388 54.2516 176.628 53.1277C176.542 53.1021 176.483 53.0228 176.482 52.9329V52.9329C176.481 52.7944 176.615 52.6949 176.747 52.7337C180.366 53.7922 183.88 53.8257 186.823 52.8264C189.838 51.8027 192.105 49.7455 193.308 46.94C194.512 44.1346 194.593 40.7198 193.54 37.1689C192.487 33.6179 190.353 30.1068 187.433 27.1219C184.513 24.1371 180.952 21.8264 177.243 20.5102C173.534 19.1939 169.861 18.9372 166.733 19.7757C163.606 20.6142 161.178 22.5062 159.786 25.1898C158.434 27.7971 158.126 31.0261 158.897 34.452C158.93 34.5994 158.811 34.7377 158.661 34.7233V34.7233Z" fill="#7998B1"/>
</g>
<g filter="url(#filter4_i_128_328)">
<path d="M163.45 34.7707C163.292 34.75 163.166 34.6259 163.147 34.4668C162.848 32.0041 163.308 29.7066 164.473 27.8603C165.679 25.9469 167.586 24.6085 169.938 24.0228C172.291 23.437 174.98 23.6315 177.646 24.5806C180.313 25.5296 182.832 27.1883 184.87 29.3364C186.907 31.4845 188.366 34.0206 189.054 36.6079C189.741 39.1953 189.624 41.7117 188.718 43.8231C187.812 45.9345 186.16 47.5411 183.982 48.4297C181.871 49.2905 179.362 49.438 176.77 48.8566C176.622 48.8234 176.518 48.6922 176.515 48.5402V48.5402C176.51 48.3212 176.714 48.1576 176.927 48.2025C179.309 48.7038 181.608 48.5516 183.551 47.7594C185.607 46.9205 187.167 45.4038 188.022 43.4105C188.877 41.4172 188.988 39.0417 188.339 36.599C187.69 34.1564 186.312 31.7622 184.389 29.7343C182.466 27.7063 180.087 26.1405 177.57 25.2446C175.052 24.3486 172.514 24.165 170.293 24.718C168.072 25.2709 166.272 26.5344 165.133 28.3408C164.067 30.0305 163.627 32.1206 163.857 34.365C163.882 34.6 163.684 34.8013 163.45 34.7707V34.7707Z" fill="#9E4770"/>
</g>
<path d="M1.84375 34.5938C2.51042 34.6146 3.09375 34.625 3.59375 34.625C4.09375 34.6042 4.5 34.5938 4.8125 34.5938H5.71875C5.94792 34.5729 6.22917 34.5625 6.5625 34.5625C6.85417 34.5625 7.20833 34.5625 7.625 34.5625C8.04167 34.5625 8.52083 34.5729 9.0625 34.5938C9.22917 35.1771 9.41667 35.75 9.625 36.3125C9.85417 36.8542 10.0521 37.3438 10.2188 37.7812C10.4271 38.3021 10.6354 38.7917 10.8438 39.25C11.0521 39.7083 11.3021 40.2604 11.5938 40.9062C11.8438 41.4479 12.1458 42.1146 12.5 42.9062C12.8542 43.6771 13.2708 44.5625 13.75 45.5625C13.9792 44.9167 14.1875 44.3229 14.375 43.7812C14.5833 43.2396 14.7604 42.7708 14.9062 42.375C15.0729 41.9167 15.2083 41.5 15.3125 41.125C15.4167 40.75 15.5312 40.2917 15.6562 39.75C15.7604 39.2917 15.875 38.7396 16 38.0938C16.1458 37.4479 16.2917 36.6979 16.4375 35.8438C17.0417 35.8438 17.5833 35.8438 18.0625 35.8438C18.5417 35.8438 18.9583 35.8333 19.3125 35.8125C19.7083 35.8125 20.0625 35.8021 20.375 35.7812C20.7083 35.7812 21.1562 35.7604 21.7188 35.7188C22.1979 35.6771 22.8333 35.6458 23.625 35.625C24.4375 35.5833 25.4375 35.5312 26.625 35.4688C26.1875 35.7812 25.8333 36.0938 25.5625 36.4062C25.3125 36.6979 25.1146 36.9583 24.9688 37.1875C24.8021 37.4583 24.6979 37.7188 24.6562 37.9688C24.6146 38.1771 24.5729 38.6562 24.5312 39.4062C24.5104 40.1562 24.4792 41.0521 24.4375 42.0938C24.4167 43.1146 24.3958 44.2083 24.375 45.375C24.375 46.5417 24.3854 47.6458 24.4062 48.6875C24.4271 49.7292 24.4583 50.6354 24.5 51.4062C24.5625 52.1562 24.6458 52.6354 24.75 52.8438C24.8958 53.0938 25.0938 53.3854 25.3438 53.7188C25.5729 54.0104 25.8646 54.3438 26.2188 54.7188C26.5938 55.0938 27.0833 55.5104 27.6875 55.9688C26.7292 56.0104 25.9271 56.0417 25.2812 56.0625C24.6562 56.0833 24.1354 56.1042 23.7188 56.125C23.2396 56.1458 22.8542 56.1562 22.5625 56.1562C22.25 56.1562 21.8229 56.1667 21.2812 56.1875C20.8021 56.2083 20.1667 56.2396 19.375 56.2812C18.5833 56.3021 17.5625 56.3438 16.3125 56.4062C16.6042 56.0729 16.875 55.7396 17.125 55.4062C17.375 55.0729 17.5833 54.7708 17.75 54.5C17.9583 54.1875 18.1354 53.8854 18.2812 53.5938C18.4271 53.1979 18.5417 52.4792 18.625 51.4375C18.7083 50.5417 18.7708 49.2604 18.8125 47.5938C18.8542 45.9062 18.8542 43.6458 18.8125 40.8125C18.4167 41.4583 18.0625 42.1042 17.75 42.75C17.4583 43.375 17.1979 43.9479 16.9688 44.4688C16.7188 45.0729 16.4896 45.6562 16.2812 46.2188C16.0729 46.8021 15.8542 47.4479 15.625 48.1562C15.4167 48.7604 15.1667 49.4792 14.875 50.3125C14.6042 51.1458 14.2917 52.0625 13.9375 53.0625L12.75 53.125C12.5833 52.2917 12.4167 51.5417 12.25 50.875C12.0833 50.1875 11.9167 49.6042 11.75 49.125C11.5625 48.5625 11.375 48.0625 11.1875 47.625C10.9792 47.1875 10.75 46.6979 10.5 46.1562C10.2708 45.6979 9.98958 45.1562 9.65625 44.5312C9.34375 43.9062 8.97917 43.2083 8.5625 42.4375C8.35417 44.5625 8.22917 46.2917 8.1875 47.625C8.14583 48.9375 8.14583 49.9583 8.1875 50.6875C8.22917 51.5625 8.29167 52.1979 8.375 52.5938C8.5 52.9479 8.69792 53.3438 8.96875 53.7812C9.19792 54.1562 9.51042 54.6042 9.90625 55.125C10.3229 55.625 10.8542 56.1875 11.5 56.8125C11.0417 56.8125 10.5625 56.8125 10.0625 56.8125C9.5625 56.8125 9.10417 56.8229 8.6875 56.8438C8.1875 56.8646 7.69792 56.875 7.21875 56.875C6.71875 56.8958 6.13542 56.9271 5.46875 56.9688C4.88542 57.0104 4.1875 57.0521 3.375 57.0938C2.5625 57.1354 1.625 57.2083 0.5625 57.3125C1.02083 57.0208 1.39583 56.7396 1.6875 56.4688C1.97917 56.1771 2.20833 55.9167 2.375 55.6875C2.58333 55.4167 2.73958 55.1458 2.84375 54.875C2.90625 54.7083 2.95833 54.3438 3 53.7812C3.0625 53.2188 3.11458 52.5312 3.15625 51.7188C3.21875 50.9062 3.26042 50 3.28125 49C3.32292 48 3.35417 46.9896 3.375 45.9688C3.41667 44.9271 3.44792 43.9167 3.46875 42.9375C3.48958 41.9375 3.5 41.0417 3.5 40.25C3.52083 39.4375 3.53125 38.7604 3.53125 38.2188C3.53125 37.6771 3.53125 37.3333 3.53125 37.1875C3.46875 36.875 3.375 36.5625 3.25 36.25C3.14583 35.9792 2.97917 35.6979 2.75 35.4062C2.52083 35.1146 2.21875 34.8438 1.84375 34.5938ZM32.2812 35.8438C33.3229 35.9062 34.1979 35.9583 34.9062 36C35.6354 36.0208 36.2396 36.0417 36.7188 36.0625C37.2604 36.0833 37.7188 36.0833 38.0938 36.0625C38.4688 36.0417 38.9792 35.9896 39.625 35.9062C40.1667 35.8438 40.8854 35.75 41.7812 35.625C42.6979 35.4792 43.8333 35.2917 45.1875 35.0625C44.7083 35.5417 44.3333 35.9792 44.0625 36.375C43.8125 36.75 43.6146 37.0729 43.4688 37.3438C43.3021 37.6771 43.1875 37.9583 43.125 38.1875C43.0833 38.3958 43.125 38.9167 43.25 39.75C43.375 40.5833 43.5521 41.5729 43.7812 42.7188C44.0104 43.8438 44.2604 45.0521 44.5312 46.3438C44.8021 47.6146 45.0729 48.8125 45.3438 49.9375C45.6146 51.0417 45.8542 51.9896 46.0625 52.7812C46.2917 53.5521 46.4583 54.0104 46.5625 54.1562C46.875 54.5938 47.0729 54.8854 47.1562 55.0312C47.2396 55.1562 47.3854 55.2708 47.5938 55.375C47.6771 55.4167 47.8125 55.4792 48 55.5625C48.1667 55.6458 48.3854 55.75 48.6562 55.875C48.9479 56 49.3125 56.1458 49.75 56.3125C48.9375 56.3542 48.2396 56.3854 47.6562 56.4062C47.0729 56.4062 46.5938 56.4167 46.2188 56.4375C45.7812 56.4583 45.4062 56.4792 45.0938 56.5C44.7812 56.5 44.4062 56.5208 43.9688 56.5625C43.5938 56.6042 43.1042 56.6458 42.5 56.6875C41.9167 56.7292 41.2292 56.7708 40.4375 56.8125C40.8542 56.5208 41.1875 56.2604 41.4375 56.0312C41.7083 55.7812 41.9167 55.5729 42.0625 55.4062C42.2292 55.1979 42.3438 55.0104 42.4062 54.8438C42.4479 54.6562 42.4792 54.375 42.5 54C42.5208 53.6667 42.5208 53.2292 42.5 52.6875C42.4792 52.125 42.4271 51.3958 42.3438 50.5L34.125 51.3438C33.9167 51.6979 33.7604 52.0104 33.6562 52.2812C33.5521 52.5312 33.4792 52.75 33.4375 52.9375C33.375 53.1667 33.3542 53.3542 33.375 53.5C33.4167 53.6667 33.4896 53.8646 33.5938 54.0938C33.6979 54.3021 33.8438 54.5521 34.0312 54.8438C34.2396 55.1146 34.5417 55.4375 34.9375 55.8125C34.4167 55.7917 33.8854 55.7812 33.3438 55.7812C32.8021 55.7812 32.3021 55.7917 31.8438 55.8125C31.3021 55.8333 30.7708 55.8542 30.25 55.875C29.7292 55.8958 29.1354 55.9271 28.4688 55.9688C27.9062 56.0104 27.25 56.0625 26.5 56.125C25.7292 56.1667 24.9062 56.2292 24.0312 56.3125C24.5729 56.0625 25.0312 55.8125 25.4062 55.5625C25.7812 55.2917 26.0938 55.0417 26.3438 54.8125C26.6354 54.5625 26.8854 54.3229 27.0938 54.0938C27.2396 53.8854 27.5312 53.4062 27.9688 52.6562C28.4062 51.8854 28.8958 50.9792 29.4375 49.9375C30 48.8958 30.5833 47.7812 31.1875 46.5938C31.8125 45.4062 32.375 44.2917 32.875 43.25C33.375 42.1875 33.7812 41.2708 34.0938 40.5C34.4062 39.7292 34.5625 39.2292 34.5625 39C34.5208 38.7292 34.4167 38.4271 34.25 38.0938C34.1042 37.8021 33.875 37.4688 33.5625 37.0938C33.2708 36.7188 32.8438 36.3021 32.2812 35.8438ZM41.9688 48.1875C41.8438 47.4583 41.7292 46.8333 41.625 46.3125C41.5208 45.7708 41.4375 45.3229 41.375 44.9688C41.2917 44.5521 41.2292 44.1875 41.1875 43.875C41.125 43.5833 41.0521 43.2083 40.9688 42.75C40.8854 42.3542 40.7812 41.8646 40.6562 41.2812C40.5521 40.6771 40.4167 39.9583 40.25 39.125C39.0625 41.5 38.1354 43.3438 37.4688 44.6562C36.8229 45.9479 36.3542 46.8958 36.0625 47.5C35.7083 48.2083 35.5104 48.625 35.4688 48.75L41.9688 48.1875ZM68.375 34.125C68.0833 34.7917 67.8229 35.375 67.5938 35.875C67.3646 36.375 67.1667 36.8021 67 37.1562C66.8125 37.5521 66.6562 37.9062 66.5312 38.2188C66.4271 38.4479 66.2917 38.7604 66.125 39.1562C65.9583 39.5104 65.75 39.9792 65.5 40.5625C65.2708 41.125 64.9688 41.8542 64.5938 42.75C64.4062 41.9792 64.1771 41.3021 63.9062 40.7188C63.6354 40.1354 63.3438 39.625 63.0312 39.1875C62.7188 38.75 62.3854 38.3958 62.0312 38.125C61.6979 37.8333 61.3646 37.5938 61.0312 37.4062C60.2604 36.9896 59.4479 36.7604 58.5938 36.7188C57.4688 36.7812 56.5833 36.9688 55.9375 37.2812C55.3125 37.5729 54.8542 37.9167 54.5625 38.3125C54.2708 38.6875 54.1146 39.0833 54.0938 39.5C54.0729 39.8958 54.125 40.2292 54.25 40.5C54.3542 40.75 54.7188 41.0417 55.3438 41.375C55.9896 41.7083 56.7604 42.0938 57.6562 42.5312C58.5729 42.9479 59.5521 43.4271 60.5938 43.9688C61.6354 44.4896 62.5938 45.0729 63.4688 45.7188C64.3646 46.3438 65.1146 47.0312 65.7188 47.7812C66.3438 48.5104 66.6875 49.2917 66.75 50.125C66.8125 51.1875 66.8021 52.1458 66.7188 53C66.6354 53.8542 66.3438 54.5833 65.8438 55.1875C65.3438 55.7917 64.5625 56.2708 63.5 56.625C62.4583 56.9792 61.0104 57.1979 59.1562 57.2812C57.2396 57.3646 55.6667 57.2604 54.4375 56.9688C53.2083 56.6771 52.2083 56.2812 51.4375 55.7812C50.6875 55.2812 50.125 54.7292 49.75 54.125C49.3958 53.5208 49.1354 52.9479 48.9688 52.4062C48.8021 51.8438 48.6875 51.3646 48.625 50.9688C48.5625 50.5521 48.4583 50.3021 48.3125 50.2188C48.1458 50.1146 47.9792 50.0208 47.8125 49.9375C47.6667 49.8542 47.5104 49.7812 47.3438 49.7188C47.1771 49.6354 47.0104 49.5625 46.8438 49.5L55.9375 48.0312C55.4167 48.4479 55.0104 48.8333 54.7188 49.1875C54.4479 49.5417 54.2396 49.8542 54.0938 50.125C53.9271 50.4375 53.8125 50.7292 53.75 51C53.7083 51.2917 53.8021 51.6562 54.0312 52.0938C54.2604 52.5312 54.5729 52.9583 54.9688 53.375C55.3854 53.7708 55.8646 54.1042 56.4062 54.375C56.9479 54.6458 57.5104 54.7604 58.0938 54.7188C58.8229 54.6562 59.4167 54.4792 59.875 54.1875C60.3333 53.875 60.6771 53.4896 60.9062 53.0312C61.1562 52.5729 61.3021 52.0729 61.3438 51.5312C61.3854 50.9896 61.3333 50.4583 61.1875 49.9375C61.0625 49.3958 60.8542 48.8958 60.5625 48.4375C60.2708 47.9583 59.9271 47.5625 59.5312 47.25C59.1771 47 58.625 46.7604 57.875 46.5312C57.1458 46.3021 56.3229 46.0521 55.4062 45.7812C54.5104 45.5104 53.5833 45.1979 52.625 44.8438C51.6875 44.4896 50.8333 44.0521 50.0625 43.5312C49.3125 43.0104 48.7083 42.3958 48.25 41.6875C47.8125 40.9792 47.6458 40.125 47.75 39.125C47.8333 38.2708 48.1042 37.5625 48.5625 37C49.0417 36.4167 49.6354 35.9583 50.3438 35.625C51.0729 35.2708 51.875 35.0104 52.75 34.8438C53.6458 34.6771 54.5521 34.5833 55.4688 34.5625C56.4062 34.5208 57.3229 34.5312 58.2188 34.5938C59.1354 34.6562 59.9583 34.7292 60.6875 34.8125C61.4167 34.8958 62.0312 34.9792 62.5312 35.0625C63.0521 35.125 63.375 35.1667 63.5 35.1875C64.0417 35.2292 64.5833 35.2188 65.125 35.1562C65.6042 35.1146 66.125 35.0208 66.6875 34.875C67.2708 34.7083 67.8333 34.4583 68.375 34.125ZM67.25 34.8125C67.9792 34.8958 68.5938 34.9583 69.0938 35C69.5938 35.0208 69.9896 35.0417 70.2812 35.0625C70.6354 35.0833 70.9167 35.0938 71.125 35.0938C71.4792 35.0938 71.8854 35.0833 72.3438 35.0625C72.7396 35.0417 73.1979 35.0104 73.7188 34.9688C74.2604 34.9062 74.8438 34.8125 75.4688 34.6875C75.1771 35 74.9375 35.3021 74.75 35.5938C74.5625 35.8646 74.4167 36.1146 74.3125 36.3438C74.1875 36.5938 74.0833 36.8229 74 37.0312C73.9167 37.3021 73.8229 37.7188 73.7188 38.2812C73.6146 38.7604 73.5 39.4375 73.375 40.3125C73.2708 41.1875 73.1354 42.3333 72.9688 43.75C73.6771 43.7708 74.2917 43.7812 74.8125 43.7812C75.3333 43.7604 75.7708 43.75 76.125 43.75H77.1562C77.4479 43.7292 77.7812 43.7083 78.1562 43.6875C78.7812 43.6667 79.7292 43.6042 81 43.5C81.1042 42.5417 81.1562 41.7188 81.1562 41.0312C81.1771 40.3229 81.1667 39.7292 81.125 39.25C81.0833 38.7083 81.0208 38.25 80.9375 37.875C80.875 37.6667 80.7812 37.4167 80.6562 37.125C80.5521 36.875 80.4062 36.5729 80.2188 36.2188C80.0521 35.8438 79.8229 35.3958 79.5312 34.875C80.0729 34.9583 80.5521 35.0208 80.9688 35.0625C81.4062 35.0833 81.7708 35.1042 82.0625 35.125C82.3958 35.1458 82.6771 35.1562 82.9062 35.1562C83.1354 35.1562 83.4375 35.1458 83.8125 35.125C84.125 35.1042 84.5104 35.0938 84.9688 35.0938C85.4271 35.0729 85.9896 35.0417 86.6562 35C86.4896 35.2917 86.3438 35.5938 86.2188 35.9062C86.0938 36.2188 85.9896 36.5 85.9062 36.75C85.8229 37.0417 85.7396 37.3333 85.6562 37.625C85.5521 38.0625 85.4583 38.6979 85.375 39.5312C85.3125 40.3646 85.25 41.2917 85.1875 42.3125C85.1458 43.3333 85.1042 44.3958 85.0625 45.5C85.0417 46.6042 85.0208 47.6458 85 48.625C85 49.6042 85.0104 50.4792 85.0312 51.25C85.0521 52 85.0938 52.5312 85.1562 52.8438C85.2188 53.2188 85.3229 53.6042 85.4688 54C85.5938 54.3542 85.7604 54.7396 85.9688 55.1562C86.1771 55.5521 86.4479 55.9271 86.7812 56.2812L79.25 56.8438C79.5625 56.5521 79.8125 56.2708 80 56C80.1875 55.7083 80.3333 55.4583 80.4375 55.25C80.5417 55.0208 80.6146 54.8021 80.6562 54.5938C80.6771 54.3438 80.7083 53.9062 80.75 53.2812C80.7917 52.7604 80.8333 52.0208 80.875 51.0625C80.9167 50.1042 80.9583 48.8333 81 47.25C80.7083 47.25 80.3542 47.2604 79.9375 47.2812C79.5417 47.2812 79.1667 47.2917 78.8125 47.3125C78.3958 47.3333 77.9583 47.3438 77.5 47.3438C77.0417 47.3646 76.5625 47.3854 76.0625 47.4062C75.6458 47.4479 75.1771 47.4896 74.6562 47.5312C74.1562 47.5521 73.6562 47.5833 73.1562 47.625C73.1146 48.5 73.1146 49.2708 73.1562 49.9375C73.1979 50.5833 73.2604 51.1354 73.3438 51.5938C73.4271 52.1354 73.5312 52.6042 73.6562 53C73.7812 53.375 73.9167 53.75 74.0625 54.125C74.1875 54.4583 74.3333 54.8125 74.5 55.1875C74.6875 55.5625 74.875 55.8958 75.0625 56.1875C74.6667 56.1458 74.3021 56.1146 73.9688 56.0938C73.6354 56.0521 73.3438 56.0104 73.0938 55.9688C72.8021 55.9479 72.5208 55.9271 72.25 55.9062C71.9792 55.9062 71.6562 55.8958 71.2812 55.875C70.9479 55.8542 70.5312 55.8438 70.0312 55.8438C69.5312 55.8229 68.9479 55.8125 68.2812 55.8125C68.6771 55.4167 68.9896 55.0312 69.2188 54.6562C69.4688 54.2604 69.6458 53.9062 69.75 53.5938C69.875 53.2188 69.9583 52.875 70 52.5625C70.0208 52.2917 70.0312 51.7812 70.0312 51.0312C70.0521 50.2812 70.0521 49.4271 70.0312 48.4688C70.0312 47.4896 70.0208 46.4688 70 45.4062C69.9792 44.3229 69.9479 43.3125 69.9062 42.375C69.8854 41.4375 69.8542 40.6354 69.8125 39.9688C69.7917 39.2812 69.7708 38.8542 69.75 38.6875C69.6458 38.3125 69.4896 37.9062 69.2812 37.4688C69.0938 37.1146 68.8438 36.7083 68.5312 36.25C68.2188 35.7708 67.7917 35.2917 67.25 34.8125ZM89.0938 37.3438C88.7812 37.2396 88.5312 37.0625 88.3438 36.8125C88.1562 36.5417 88.0521 36.25 88.0312 35.9375C88.0312 35.625 88.1146 35.3229 88.2812 35.0312C88.4688 34.7188 88.75 34.4583 89.125 34.25C89.7292 33.9167 90.25 33.8333 90.6875 34C91.1458 34.1667 91.4792 34.4167 91.6875 34.75C91.7917 34.9167 91.8646 35.1458 91.9062 35.4375C91.9688 35.7083 91.9896 36.0104 91.9688 36.3438C91.9688 36.6562 91.9375 36.9688 91.875 37.2812C91.8125 37.5938 91.7188 37.8542 91.5938 38.0625C91.4896 38.2292 91.3646 38.3958 91.2188 38.5625C91.0938 38.7083 90.9375 38.8542 90.75 39C90.5833 39.1458 90.3854 39.2812 90.1562 39.4062L89.0312 39.3125C89.1771 39.1458 89.3125 39 89.4375 38.875C89.5625 38.7292 89.6667 38.6042 89.75 38.5C89.8333 38.3958 89.9167 38.3021 90 38.2188C90.125 38.0729 90.2292 37.9271 90.3125 37.7812C90.3958 37.6562 90.4688 37.5312 90.5312 37.4062C90.5938 37.2604 90.6042 37.1146 90.5625 36.9688C90.3958 37.1354 90.2292 37.25 90.0625 37.3125C89.8958 37.375 89.7396 37.4062 89.5938 37.4062C89.4271 37.4271 89.2604 37.4062 89.0938 37.3438ZM92.3125 35.6562C93.7708 35.6979 94.9792 35.7292 95.9375 35.75C96.9167 35.75 97.7083 35.75 98.3125 35.75H99.9688H109.281C109.323 36.1667 109.354 36.5729 109.375 36.9688C109.417 37.3438 109.438 37.6771 109.438 37.9688C109.438 38.3229 109.427 38.6458 109.406 38.9375C109.385 39.2292 109.354 39.5417 109.312 39.875C109.271 40.1667 109.229 40.4792 109.188 40.8125C109.146 41.1458 109.073 41.4896 108.969 41.8438C108.677 40.7188 108.281 39.8646 107.781 39.2812C107.302 38.6979 106.812 38.2708 106.312 38C105.729 37.6875 105.115 37.5208 104.469 37.5C103.615 37.5417 102.948 37.6146 102.469 37.7188C101.99 37.8229 101.615 37.9688 101.344 38.1562C101.073 38.3438 100.865 38.5625 100.719 38.8125C100.594 39.0417 100.458 39.3021 100.312 39.5938C100.188 39.8438 100.073 40.2292 99.9688 40.75C99.8646 41.1875 99.7604 41.7812 99.6562 42.5312C99.5729 43.2812 99.4792 44.25 99.375 45.4375C99.9375 45.2708 100.385 45.1146 100.719 44.9688C101.073 44.8229 101.354 44.6979 101.562 44.5938C101.792 44.4688 101.958 44.3542 102.062 44.25C102.146 44.125 102.271 43.8958 102.438 43.5625C102.562 43.2708 102.729 42.875 102.938 42.375C103.167 41.875 103.438 41.1875 103.75 40.3125C103.792 41.2708 103.812 42.0729 103.812 42.7188C103.812 43.3438 103.823 43.8542 103.844 44.25C103.844 44.7083 103.854 45.0729 103.875 45.3438V46.5312C103.875 46.9688 103.875 47.5625 103.875 48.3125C103.896 49.0417 103.927 49.9688 103.969 51.0938C103.719 50.3229 103.49 49.7188 103.281 49.2812C103.094 48.8229 102.927 48.4792 102.781 48.25C102.615 47.9792 102.469 47.7917 102.344 47.6875C102.198 47.6458 102 47.6042 101.75 47.5625C101.521 47.5417 101.229 47.5312 100.875 47.5312C100.542 47.5312 100.115 47.5833 99.5938 47.6875C99.5312 48.8333 99.5208 49.7604 99.5625 50.4688C99.625 51.1562 99.7083 51.6875 99.8125 52.0625C99.9167 52.5 100.042 52.8125 100.188 53C100.375 53.1875 100.75 53.3438 101.312 53.4688C101.875 53.5729 102.51 53.6146 103.219 53.5938C103.948 53.5521 104.688 53.4271 105.438 53.2188C106.188 53.0104 106.854 52.6667 107.438 52.1875C107.875 51.7917 108.344 51.2917 108.844 50.6875C109.26 50.1667 109.719 49.5104 110.219 48.7188C110.74 47.9271 111.25 46.9688 111.75 45.8438C111.667 46.7812 111.604 47.5625 111.562 48.1875C111.542 48.7917 111.51 49.2812 111.469 49.6562C111.427 50.0938 111.396 50.4271 111.375 50.6562C111.375 50.9062 111.344 51.2604 111.281 51.7188C111.24 52.1146 111.167 52.6562 111.062 53.3438C110.979 54.0104 110.865 54.8646 110.719 55.9062C109.74 55.9271 108.812 55.9479 107.938 55.9688C107.062 55.9688 106.292 55.9792 105.625 56C104.833 56.0208 104.104 56.0417 103.438 56.0625C102.75 56.0625 101.99 56.0938 101.156 56.1562C100.427 56.1979 99.5625 56.2604 98.5625 56.3438C97.5833 56.4271 96.5 56.5417 95.3125 56.6875C95.4167 55.2708 95.4896 53.9375 95.5312 52.6875C95.5938 51.4167 95.6354 50.3021 95.6562 49.3438C95.6771 48.2188 95.6771 47.1771 95.6562 46.2188C95.7604 43.8229 95.7188 41.8854 95.5312 40.4062C95.3438 38.9271 95.125 37.9792 94.875 37.5625C94.75 37.4167 94.5729 37.2396 94.3438 37.0312C94.1562 36.8646 93.8958 36.6667 93.5625 36.4375C93.2292 36.2083 92.8125 35.9479 92.3125 35.6562ZM112.562 34.5938C113.229 34.6146 113.812 34.625 114.312 34.625C114.812 34.6042 115.219 34.5938 115.531 34.5938H116.438C116.667 34.5729 116.948 34.5625 117.281 34.5625C117.573 34.5625 117.927 34.5625 118.344 34.5625C118.76 34.5625 119.24 34.5729 119.781 34.5938C119.948 35.1771 120.135 35.75 120.344 36.3125C120.573 36.8542 120.771 37.3438 120.938 37.7812C121.146 38.3021 121.354 38.7917 121.562 39.25C121.771 39.7083 122.021 40.2604 122.312 40.9062C122.562 41.4479 122.865 42.1146 123.219 42.9062C123.573 43.6771 123.99 44.5625 124.469 45.5625C124.698 44.9167 124.906 44.3229 125.094 43.7812C125.302 43.2396 125.479 42.7708 125.625 42.375C125.792 41.9167 125.927 41.5 126.031 41.125C126.135 40.75 126.25 40.2917 126.375 39.75C126.479 39.2917 126.594 38.7396 126.719 38.0938C126.865 37.4479 127.01 36.6979 127.156 35.8438C127.76 35.8438 128.302 35.8438 128.781 35.8438C129.26 35.8438 129.677 35.8333 130.031 35.8125C130.427 35.8125 130.781 35.8021 131.094 35.7812C131.427 35.7812 131.875 35.7604 132.438 35.7188C132.917 35.6771 133.552 35.6458 134.344 35.625C135.156 35.5833 136.156 35.5312 137.344 35.4688C136.906 35.7812 136.552 36.0938 136.281 36.4062C136.031 36.6979 135.833 36.9583 135.688 37.1875C135.521 37.4583 135.417 37.7188 135.375 37.9688C135.333 38.1771 135.292 38.6562 135.25 39.4062C135.229 40.1562 135.198 41.0521 135.156 42.0938C135.135 43.1146 135.115 44.2083 135.094 45.375C135.094 46.5417 135.104 47.6458 135.125 48.6875C135.146 49.7292 135.177 50.6354 135.219 51.4062C135.281 52.1562 135.365 52.6354 135.469 52.8438C135.615 53.0938 135.812 53.3854 136.062 53.7188C136.292 54.0104 136.583 54.3438 136.938 54.7188C137.312 55.0938 137.802 55.5104 138.406 55.9688C137.448 56.0104 136.646 56.0417 136 56.0625C135.375 56.0833 134.854 56.1042 134.438 56.125C133.958 56.1458 133.573 56.1562 133.281 56.1562C132.969 56.1562 132.542 56.1667 132 56.1875C131.521 56.2083 130.885 56.2396 130.094 56.2812C129.302 56.3021 128.281 56.3438 127.031 56.4062C127.323 56.0729 127.594 55.7396 127.844 55.4062C128.094 55.0729 128.302 54.7708 128.469 54.5C128.677 54.1875 128.854 53.8854 129 53.5938C129.146 53.1979 129.26 52.4792 129.344 51.4375C129.427 50.5417 129.49 49.2604 129.531 47.5938C129.573 45.9062 129.573 43.6458 129.531 40.8125C129.135 41.4583 128.781 42.1042 128.469 42.75C128.177 43.375 127.917 43.9479 127.688 44.4688C127.438 45.0729 127.208 45.6562 127 46.2188C126.792 46.8021 126.573 47.4479 126.344 48.1562C126.135 48.7604 125.885 49.4792 125.594 50.3125C125.323 51.1458 125.01 52.0625 124.656 53.0625L123.469 53.125C123.302 52.2917 123.135 51.5417 122.969 50.875C122.802 50.1875 122.635 49.6042 122.469 49.125C122.281 48.5625 122.094 48.0625 121.906 47.625C121.698 47.1875 121.469 46.6979 121.219 46.1562C120.99 45.6979 120.708 45.1562 120.375 44.5312C120.062 43.9062 119.698 43.2083 119.281 42.4375C119.073 44.5625 118.948 46.2917 118.906 47.625C118.865 48.9375 118.865 49.9583 118.906 50.6875C118.948 51.5625 119.01 52.1979 119.094 52.5938C119.219 52.9479 119.417 53.3438 119.688 53.7812C119.917 54.1562 120.229 54.6042 120.625 55.125C121.042 55.625 121.573 56.1875 122.219 56.8125C121.76 56.8125 121.281 56.8125 120.781 56.8125C120.281 56.8125 119.823 56.8229 119.406 56.8438C118.906 56.8646 118.417 56.875 117.938 56.875C117.438 56.8958 116.854 56.9271 116.188 56.9688C115.604 57.0104 114.906 57.0521 114.094 57.0938C113.281 57.1354 112.344 57.2083 111.281 57.3125C111.74 57.0208 112.115 56.7396 112.406 56.4688C112.698 56.1771 112.927 55.9167 113.094 55.6875C113.302 55.4167 113.458 55.1458 113.562 54.875C113.625 54.7083 113.677 54.3438 113.719 53.7812C113.781 53.2188 113.833 52.5312 113.875 51.7188C113.938 50.9062 113.979 50 114 49C114.042 48 114.073 46.9896 114.094 45.9688C114.135 44.9271 114.167 43.9167 114.188 42.9375C114.208 41.9375 114.219 41.0417 114.219 40.25C114.24 39.4375 114.25 38.7604 114.25 38.2188C114.25 37.6771 114.25 37.3333 114.25 37.1875C114.188 36.875 114.094 36.5625 113.969 36.25C113.865 35.9792 113.698 35.6979 113.469 35.4062C113.24 35.1146 112.938 34.8438 112.562 34.5938ZM148.188 35.0312C148.812 35.1562 149.344 35.25 149.781 35.3125C150.219 35.375 150.583 35.4271 150.875 35.4688C151.208 35.5104 151.49 35.5312 151.719 35.5312C151.948 35.5312 152.26 35.5208 152.656 35.5C153.01 35.4792 153.458 35.4688 154 35.4688C154.542 35.4479 155.229 35.4167 156.062 35.375C155.583 35.7083 155.198 35.9896 154.906 36.2188C154.615 36.4479 154.396 36.6458 154.25 36.8125C154.062 37 153.948 37.1562 153.906 37.2812C153.865 37.3646 153.823 37.6771 153.781 38.2188C153.74 38.7396 153.698 39.4062 153.656 40.2188C153.635 41.0104 153.635 41.9062 153.656 42.9062C153.677 43.8854 153.729 44.8854 153.812 45.9062C153.917 46.9271 154.062 47.9167 154.25 48.875C154.438 49.8125 154.688 50.6354 155 51.3438C155.333 52.0521 155.729 52.6042 156.188 53C156.667 53.3958 157.24 53.5417 157.906 53.4375C158.781 53.3125 159.49 52.8854 160.031 52.1562C160.573 51.4271 160.979 50.5417 161.25 49.5C161.542 48.4583 161.719 47.3438 161.781 46.1562C161.865 44.9479 161.875 43.8229 161.812 42.7812C161.771 41.7188 161.688 40.8021 161.562 40.0312C161.438 39.2604 161.323 38.7812 161.219 38.5938C161.094 38.3854 160.927 38.1458 160.719 37.875C160.552 37.6458 160.333 37.3854 160.062 37.0938C159.792 36.7812 159.479 36.4479 159.125 36.0938C159.771 36.1146 160.354 36.1354 160.875 36.1562C161.396 36.1562 161.833 36.1667 162.188 36.1875C162.604 36.2083 162.979 36.2292 163.312 36.25C163.646 36.2708 164.062 36.3021 164.562 36.3438C164.979 36.3854 165.51 36.4271 166.156 36.4688C166.823 36.5104 167.615 36.5729 168.531 36.6562C168.177 36.7396 167.885 36.8542 167.656 37C167.448 37.1458 167.281 37.3021 167.156 37.4688C167.01 37.6562 166.906 37.8438 166.844 38.0312C166.781 38.1979 166.729 38.6979 166.688 39.5312C166.667 40.3438 166.625 41.3333 166.562 42.5C166.521 43.6458 166.448 44.8958 166.344 46.25C166.24 47.5833 166.073 48.8542 165.844 50.0625C165.635 51.2708 165.354 52.3438 165 53.2812C164.667 54.2188 164.229 54.8646 163.688 55.2188C162.896 55.7396 162.062 56.1146 161.188 56.3438C160.312 56.5521 159.427 56.6667 158.531 56.6875C157.635 56.6875 156.75 56.6146 155.875 56.4688C155.021 56.3021 154.198 56.1042 153.406 55.875C152.594 55.625 151.917 55.0625 151.375 54.1875C150.854 53.3125 150.438 52.2812 150.125 51.0938C149.833 49.8854 149.615 48.5938 149.469 47.2188C149.344 45.8229 149.26 44.4792 149.219 43.1875C149.198 41.8958 149.198 40.7292 149.219 39.6875C149.26 38.625 149.292 37.8229 149.312 37.2812C149.312 37.0104 149.271 36.75 149.188 36.5C149.125 36.2708 149.01 36.0312 148.844 35.7812C148.698 35.5104 148.479 35.2604 148.188 35.0312ZM166.906 34.625C167.698 34.8125 168.406 34.9583 169.031 35.0625C169.677 35.1458 170.219 35.2083 170.656 35.25C171.177 35.3125 171.635 35.3333 172.031 35.3125C172.531 35.2917 173.156 35.2188 173.906 35.0938C174.656 34.9688 175.448 34.8438 176.281 34.7188C177.115 34.5938 177.938 34.4896 178.75 34.4062C179.562 34.3229 180.271 34.3125 180.875 34.375C181.479 34.4375 182.115 34.5833 182.781 34.8125C183.448 35.0208 184.073 35.3125 184.656 35.6875C185.24 36.0417 185.74 36.4792 186.156 37C186.594 37.5208 186.865 38.125 186.969 38.8125C187.073 39.4792 187.01 40.1979 186.781 40.9688C186.552 41.7188 186.188 42.4583 185.688 43.1875C185.188 43.8958 184.562 44.5521 183.812 45.1562C183.062 45.7604 182.229 46.25 181.312 46.625C180.583 46.8958 179.792 47.1042 178.938 47.25C178.208 47.375 177.354 47.4583 176.375 47.5C175.417 47.5208 174.396 47.4167 173.312 47.1875C173.167 47.7917 173.083 48.3542 173.062 48.875C173.062 49.375 173.083 49.8229 173.125 50.2188C173.188 50.6771 173.271 51.0938 173.375 51.4688C173.5 51.8438 173.656 52.2812 173.844 52.7812C174.01 53.1979 174.198 53.7083 174.406 54.3125C174.635 54.8958 174.906 55.5521 175.219 56.2812C174.844 56.2812 174.479 56.2917 174.125 56.3125C173.771 56.3125 173.448 56.3229 173.156 56.3438C172.823 56.3646 172.51 56.3854 172.219 56.4062C171.885 56.4271 171.51 56.4688 171.094 56.5312C170.74 56.5729 170.292 56.6354 169.75 56.7188C169.229 56.8021 168.635 56.9062 167.969 57.0312C168.406 56.4062 168.75 55.8333 169 55.3125C169.271 54.7708 169.469 54.3021 169.594 53.9062C169.74 53.4479 169.833 53.0312 169.875 52.6562C169.896 52.3438 169.896 51.7917 169.875 51C169.875 50.2083 169.865 49.2917 169.844 48.25C169.823 47.2083 169.792 46.1146 169.75 44.9688C169.708 43.8229 169.656 42.75 169.594 41.75C169.531 40.7292 169.458 39.8542 169.375 39.125C169.312 38.3958 169.25 37.9167 169.188 37.6875C169.104 37.4167 168.958 37.125 168.75 36.8125C168.583 36.5417 168.344 36.2292 168.031 35.875C167.74 35.5 167.365 35.0833 166.906 34.625ZM173.375 40.7812C173.354 40.9896 173.344 41.2083 173.344 41.4375C173.344 41.875 173.375 42.4375 173.438 43.125C173.583 43.4792 173.76 43.7708 173.969 44C174.198 44.2292 174.438 44.4062 174.688 44.5312C174.958 44.6562 175.229 44.7396 175.5 44.7812C175.771 44.8229 176.042 44.8438 176.312 44.8438C176.938 44.8229 177.594 44.6771 178.281 44.4062C179.198 44.0104 179.844 43.4479 180.219 42.7188C180.594 41.9896 180.792 41.2396 180.812 40.4688C180.833 39.6979 180.698 38.9896 180.406 38.3438C180.135 37.6979 179.802 37.2604 179.406 37.0312C179.073 36.8854 178.646 36.8229 178.125 36.8438C177.667 36.8646 177.094 36.9792 176.406 37.1875C175.719 37.3958 174.875 37.7708 173.875 38.3125C173.771 38.6875 173.688 39.0208 173.625 39.3125C173.562 39.6042 173.51 39.8646 173.469 40.0938C173.427 40.3438 173.396 40.5729 173.375 40.7812Z" fill="#9E4770"/>
<path d="M2.84375 34.5938C3.51042 34.6146 4.09375 34.625 4.59375 34.625C5.09375 34.6042 5.5 34.5938 5.8125 34.5938H6.71875C6.94792 34.5729 7.22917 34.5625 7.5625 34.5625C7.85417 34.5625 8.20833 34.5625 8.625 34.5625C9.04167 34.5625 9.52083 34.5729 10.0625 34.5938C10.2292 35.1771 10.4167 35.75 10.625 36.3125C10.8542 36.8542 11.0521 37.3438 11.2188 37.7812C11.4271 38.3021 11.6354 38.7917 11.8438 39.25C12.0521 39.7083 12.3021 40.2604 12.5938 40.9062C12.8438 41.4479 13.1458 42.1146 13.5 42.9062C13.8542 43.6771 14.2708 44.5625 14.75 45.5625C14.9792 44.9167 15.1875 44.3229 15.375 43.7812C15.5833 43.2396 15.7604 42.7708 15.9062 42.375C16.0729 41.9167 16.2083 41.5 16.3125 41.125C16.4167 40.75 16.5312 40.2917 16.6562 39.75C16.7604 39.2917 16.875 38.7396 17 38.0938C17.1458 37.4479 17.2917 36.6979 17.4375 35.8438C18.0417 35.8438 18.5833 35.8438 19.0625 35.8438C19.5417 35.8438 19.9583 35.8333 20.3125 35.8125C20.7083 35.8125 21.0625 35.8021 21.375 35.7812C21.7083 35.7812 22.1562 35.7604 22.7188 35.7188C23.1979 35.6771 23.8333 35.6458 24.625 35.625C25.4375 35.5833 26.4375 35.5312 27.625 35.4688C27.1875 35.7812 26.8333 36.0938 26.5625 36.4062C26.3125 36.6979 26.1146 36.9583 25.9688 37.1875C25.8021 37.4583 25.6979 37.7188 25.6562 37.9688C25.6146 38.1771 25.5729 38.6562 25.5312 39.4062C25.5104 40.1562 25.4792 41.0521 25.4375 42.0938C25.4167 43.1146 25.3958 44.2083 25.375 45.375C25.375 46.5417 25.3854 47.6458 25.4062 48.6875C25.4271 49.7292 25.4583 50.6354 25.5 51.4062C25.5625 52.1562 25.6458 52.6354 25.75 52.8438C25.8958 53.0938 26.0938 53.3854 26.3438 53.7188C26.5729 54.0104 26.8646 54.3438 27.2188 54.7188C27.5938 55.0938 28.0833 55.5104 28.6875 55.9688C27.7292 56.0104 26.9271 56.0417 26.2812 56.0625C25.6562 56.0833 25.1354 56.1042 24.7188 56.125C24.2396 56.1458 23.8542 56.1562 23.5625 56.1562C23.25 56.1562 22.8229 56.1667 22.2812 56.1875C21.8021 56.2083 21.1667 56.2396 20.375 56.2812C19.5833 56.3021 18.5625 56.3438 17.3125 56.4062C17.6042 56.0729 17.875 55.7396 18.125 55.4062C18.375 55.0729 18.5833 54.7708 18.75 54.5C18.9583 54.1875 19.1354 53.8854 19.2812 53.5938C19.4271 53.1979 19.5417 52.4792 19.625 51.4375C19.7083 50.5417 19.7708 49.2604 19.8125 47.5938C19.8542 45.9062 19.8542 43.6458 19.8125 40.8125C19.4167 41.4583 19.0625 42.1042 18.75 42.75C18.4583 43.375 18.1979 43.9479 17.9688 44.4688C17.7188 45.0729 17.4896 45.6562 17.2812 46.2188C17.0729 46.8021 16.8542 47.4479 16.625 48.1562C16.4167 48.7604 16.1667 49.4792 15.875 50.3125C15.6042 51.1458 15.2917 52.0625 14.9375 53.0625L13.75 53.125C13.5833 52.2917 13.4167 51.5417 13.25 50.875C13.0833 50.1875 12.9167 49.6042 12.75 49.125C12.5625 48.5625 12.375 48.0625 12.1875 47.625C11.9792 47.1875 11.75 46.6979 11.5 46.1562C11.2708 45.6979 10.9896 45.1562 10.6562 44.5312C10.3438 43.9062 9.97917 43.2083 9.5625 42.4375C9.35417 44.5625 9.22917 46.2917 9.1875 47.625C9.14583 48.9375 9.14583 49.9583 9.1875 50.6875C9.22917 51.5625 9.29167 52.1979 9.375 52.5938C9.5 52.9479 9.69792 53.3438 9.96875 53.7812C10.1979 54.1562 10.5104 54.6042 10.9062 55.125C11.3229 55.625 11.8542 56.1875 12.5 56.8125C12.0417 56.8125 11.5625 56.8125 11.0625 56.8125C10.5625 56.8125 10.1042 56.8229 9.6875 56.8438C9.1875 56.8646 8.69792 56.875 8.21875 56.875C7.71875 56.8958 7.13542 56.9271 6.46875 56.9688C5.88542 57.0104 5.1875 57.0521 4.375 57.0938C3.5625 57.1354 2.625 57.2083 1.5625 57.3125C2.02083 57.0208 2.39583 56.7396 2.6875 56.4688C2.97917 56.1771 3.20833 55.9167 3.375 55.6875C3.58333 55.4167 3.73958 55.1458 3.84375 54.875C3.90625 54.7083 3.95833 54.3438 4 53.7812C4.0625 53.2188 4.11458 52.5312 4.15625 51.7188C4.21875 50.9062 4.26042 50 4.28125 49C4.32292 48 4.35417 46.9896 4.375 45.9688C4.41667 44.9271 4.44792 43.9167 4.46875 42.9375C4.48958 41.9375 4.5 41.0417 4.5 40.25C4.52083 39.4375 4.53125 38.7604 4.53125 38.2188C4.53125 37.6771 4.53125 37.3333 4.53125 37.1875C4.46875 36.875 4.375 36.5625 4.25 36.25C4.14583 35.9792 3.97917 35.6979 3.75 35.4062C3.52083 35.1146 3.21875 34.8438 2.84375 34.5938ZM33.2812 35.8438C34.3229 35.9062 35.1979 35.9583 35.9062 36C36.6354 36.0208 37.2396 36.0417 37.7188 36.0625C38.2604 36.0833 38.7188 36.0833 39.0938 36.0625C39.4688 36.0417 39.9792 35.9896 40.625 35.9062C41.1667 35.8438 41.8854 35.75 42.7812 35.625C43.6979 35.4792 44.8333 35.2917 46.1875 35.0625C45.7083 35.5417 45.3333 35.9792 45.0625 36.375C44.8125 36.75 44.6146 37.0729 44.4688 37.3438C44.3021 37.6771 44.1875 37.9583 44.125 38.1875C44.0833 38.3958 44.125 38.9167 44.25 39.75C44.375 40.5833 44.5521 41.5729 44.7812 42.7188C45.0104 43.8438 45.2604 45.0521 45.5312 46.3438C45.8021 47.6146 46.0729 48.8125 46.3438 49.9375C46.6146 51.0417 46.8542 51.9896 47.0625 52.7812C47.2917 53.5521 47.4583 54.0104 47.5625 54.1562C47.875 54.5938 48.0729 54.8854 48.1562 55.0312C48.2396 55.1562 48.3854 55.2708 48.5938 55.375C48.6771 55.4167 48.8125 55.4792 49 55.5625C49.1667 55.6458 49.3854 55.75 49.6562 55.875C49.9479 56 50.3125 56.1458 50.75 56.3125C49.9375 56.3542 49.2396 56.3854 48.6562 56.4062C48.0729 56.4062 47.5938 56.4167 47.2188 56.4375C46.7812 56.4583 46.4062 56.4792 46.0938 56.5C45.7812 56.5 45.4062 56.5208 44.9688 56.5625C44.5938 56.6042 44.1042 56.6458 43.5 56.6875C42.9167 56.7292 42.2292 56.7708 41.4375 56.8125C41.8542 56.5208 42.1875 56.2604 42.4375 56.0312C42.7083 55.7812 42.9167 55.5729 43.0625 55.4062C43.2292 55.1979 43.3438 55.0104 43.4062 54.8438C43.4479 54.6562 43.4792 54.375 43.5 54C43.5208 53.6667 43.5208 53.2292 43.5 52.6875C43.4792 52.125 43.4271 51.3958 43.3438 50.5L35.125 51.3438C34.9167 51.6979 34.7604 52.0104 34.6562 52.2812C34.5521 52.5312 34.4792 52.75 34.4375 52.9375C34.375 53.1667 34.3542 53.3542 34.375 53.5C34.4167 53.6667 34.4896 53.8646 34.5938 54.0938C34.6979 54.3021 34.8438 54.5521 35.0312 54.8438C35.2396 55.1146 35.5417 55.4375 35.9375 55.8125C35.4167 55.7917 34.8854 55.7812 34.3438 55.7812C33.8021 55.7812 33.3021 55.7917 32.8438 55.8125C32.3021 55.8333 31.7708 55.8542 31.25 55.875C30.7292 55.8958 30.1354 55.9271 29.4688 55.9688C28.9062 56.0104 28.25 56.0625 27.5 56.125C26.7292 56.1667 25.9062 56.2292 25.0312 56.3125C25.5729 56.0625 26.0312 55.8125 26.4062 55.5625C26.7812 55.2917 27.0938 55.0417 27.3438 54.8125C27.6354 54.5625 27.8854 54.3229 28.0938 54.0938C28.2396 53.8854 28.5312 53.4062 28.9688 52.6562C29.4062 51.8854 29.8958 50.9792 30.4375 49.9375C31 48.8958 31.5833 47.7812 32.1875 46.5938C32.8125 45.4062 33.375 44.2917 33.875 43.25C34.375 42.1875 34.7812 41.2708 35.0938 40.5C35.4062 39.7292 35.5625 39.2292 35.5625 39C35.5208 38.7292 35.4167 38.4271 35.25 38.0938C35.1042 37.8021 34.875 37.4688 34.5625 37.0938C34.2708 36.7188 33.8438 36.3021 33.2812 35.8438ZM42.9688 48.1875C42.8438 47.4583 42.7292 46.8333 42.625 46.3125C42.5208 45.7708 42.4375 45.3229 42.375 44.9688C42.2917 44.5521 42.2292 44.1875 42.1875 43.875C42.125 43.5833 42.0521 43.2083 41.9688 42.75C41.8854 42.3542 41.7812 41.8646 41.6562 41.2812C41.5521 40.6771 41.4167 39.9583 41.25 39.125C40.0625 41.5 39.1354 43.3438 38.4688 44.6562C37.8229 45.9479 37.3542 46.8958 37.0625 47.5C36.7083 48.2083 36.5104 48.625 36.4688 48.75L42.9688 48.1875ZM69.375 34.125C69.0833 34.7917 68.8229 35.375 68.5938 35.875C68.3646 36.375 68.1667 36.8021 68 37.1562C67.8125 37.5521 67.6562 37.9062 67.5312 38.2188C67.4271 38.4479 67.2917 38.7604 67.125 39.1562C66.9583 39.5104 66.75 39.9792 66.5 40.5625C66.2708 41.125 65.9688 41.8542 65.5938 42.75C65.4062 41.9792 65.1771 41.3021 64.9062 40.7188C64.6354 40.1354 64.3438 39.625 64.0312 39.1875C63.7188 38.75 63.3854 38.3958 63.0312 38.125C62.6979 37.8333 62.3646 37.5938 62.0312 37.4062C61.2604 36.9896 60.4479 36.7604 59.5938 36.7188C58.4688 36.7812 57.5833 36.9688 56.9375 37.2812C56.3125 37.5729 55.8542 37.9167 55.5625 38.3125C55.2708 38.6875 55.1146 39.0833 55.0938 39.5C55.0729 39.8958 55.125 40.2292 55.25 40.5C55.3542 40.75 55.7188 41.0417 56.3438 41.375C56.9896 41.7083 57.7604 42.0938 58.6562 42.5312C59.5729 42.9479 60.5521 43.4271 61.5938 43.9688C62.6354 44.4896 63.5938 45.0729 64.4688 45.7188C65.3646 46.3438 66.1146 47.0312 66.7188 47.7812C67.3438 48.5104 67.6875 49.2917 67.75 50.125C67.8125 51.1875 67.8021 52.1458 67.7188 53C67.6354 53.8542 67.3438 54.5833 66.8438 55.1875C66.3438 55.7917 65.5625 56.2708 64.5 56.625C63.4583 56.9792 62.0104 57.1979 60.1562 57.2812C58.2396 57.3646 56.6667 57.2604 55.4375 56.9688C54.2083 56.6771 53.2083 56.2812 52.4375 55.7812C51.6875 55.2812 51.125 54.7292 50.75 54.125C50.3958 53.5208 50.1354 52.9479 49.9688 52.4062C49.8021 51.8438 49.6875 51.3646 49.625 50.9688C49.5625 50.5521 49.4583 50.3021 49.3125 50.2188C49.1458 50.1146 48.9792 50.0208 48.8125 49.9375C48.6667 49.8542 48.5104 49.7812 48.3438 49.7188C48.1771 49.6354 48.0104 49.5625 47.8438 49.5L56.9375 48.0312C56.4167 48.4479 56.0104 48.8333 55.7188 49.1875C55.4479 49.5417 55.2396 49.8542 55.0938 50.125C54.9271 50.4375 54.8125 50.7292 54.75 51C54.7083 51.2917 54.8021 51.6562 55.0312 52.0938C55.2604 52.5312 55.5729 52.9583 55.9688 53.375C56.3854 53.7708 56.8646 54.1042 57.4062 54.375C57.9479 54.6458 58.5104 54.7604 59.0938 54.7188C59.8229 54.6562 60.4167 54.4792 60.875 54.1875C61.3333 53.875 61.6771 53.4896 61.9062 53.0312C62.1562 52.5729 62.3021 52.0729 62.3438 51.5312C62.3854 50.9896 62.3333 50.4583 62.1875 49.9375C62.0625 49.3958 61.8542 48.8958 61.5625 48.4375C61.2708 47.9583 60.9271 47.5625 60.5312 47.25C60.1771 47 59.625 46.7604 58.875 46.5312C58.1458 46.3021 57.3229 46.0521 56.4062 45.7812C55.5104 45.5104 54.5833 45.1979 53.625 44.8438C52.6875 44.4896 51.8333 44.0521 51.0625 43.5312C50.3125 43.0104 49.7083 42.3958 49.25 41.6875C48.8125 40.9792 48.6458 40.125 48.75 39.125C48.8333 38.2708 49.1042 37.5625 49.5625 37C50.0417 36.4167 50.6354 35.9583 51.3438 35.625C52.0729 35.2708 52.875 35.0104 53.75 34.8438C54.6458 34.6771 55.5521 34.5833 56.4688 34.5625C57.4062 34.5208 58.3229 34.5312 59.2188 34.5938C60.1354 34.6562 60.9583 34.7292 61.6875 34.8125C62.4167 34.8958 63.0312 34.9792 63.5312 35.0625C64.0521 35.125 64.375 35.1667 64.5 35.1875C65.0417 35.2292 65.5833 35.2188 66.125 35.1562C66.6042 35.1146 67.125 35.0208 67.6875 34.875C68.2708 34.7083 68.8333 34.4583 69.375 34.125ZM68.25 34.8125C68.9792 34.8958 69.5938 34.9583 70.0938 35C70.5938 35.0208 70.9896 35.0417 71.2812 35.0625C71.6354 35.0833 71.9167 35.0938 72.125 35.0938C72.4792 35.0938 72.8854 35.0833 73.3438 35.0625C73.7396 35.0417 74.1979 35.0104 74.7188 34.9688C75.2604 34.9062 75.8438 34.8125 76.4688 34.6875C76.1771 35 75.9375 35.3021 75.75 35.5938C75.5625 35.8646 75.4167 36.1146 75.3125 36.3438C75.1875 36.5938 75.0833 36.8229 75 37.0312C74.9167 37.3021 74.8229 37.7188 74.7188 38.2812C74.6146 38.7604 74.5 39.4375 74.375 40.3125C74.2708 41.1875 74.1354 42.3333 73.9688 43.75C74.6771 43.7708 75.2917 43.7812 75.8125 43.7812C76.3333 43.7604 76.7708 43.75 77.125 43.75H78.1562C78.4479 43.7292 78.7812 43.7083 79.1562 43.6875C79.7812 43.6667 80.7292 43.6042 82 43.5C82.1042 42.5417 82.1562 41.7188 82.1562 41.0312C82.1771 40.3229 82.1667 39.7292 82.125 39.25C82.0833 38.7083 82.0208 38.25 81.9375 37.875C81.875 37.6667 81.7812 37.4167 81.6562 37.125C81.5521 36.875 81.4062 36.5729 81.2188 36.2188C81.0521 35.8438 80.8229 35.3958 80.5312 34.875C81.0729 34.9583 81.5521 35.0208 81.9688 35.0625C82.4062 35.0833 82.7708 35.1042 83.0625 35.125C83.3958 35.1458 83.6771 35.1562 83.9062 35.1562C84.1354 35.1562 84.4375 35.1458 84.8125 35.125C85.125 35.1042 85.5104 35.0938 85.9688 35.0938C86.4271 35.0729 86.9896 35.0417 87.6562 35C87.4896 35.2917 87.3438 35.5938 87.2188 35.9062C87.0938 36.2188 86.9896 36.5 86.9062 36.75C86.8229 37.0417 86.7396 37.3333 86.6562 37.625C86.5521 38.0625 86.4583 38.6979 86.375 39.5312C86.3125 40.3646 86.25 41.2917 86.1875 42.3125C86.1458 43.3333 86.1042 44.3958 86.0625 45.5C86.0417 46.6042 86.0208 47.6458 86 48.625C86 49.6042 86.0104 50.4792 86.0312 51.25C86.0521 52 86.0938 52.5312 86.1562 52.8438C86.2188 53.2188 86.3229 53.6042 86.4688 54C86.5938 54.3542 86.7604 54.7396 86.9688 55.1562C87.1771 55.5521 87.4479 55.9271 87.7812 56.2812L80.25 56.8438C80.5625 56.5521 80.8125 56.2708 81 56C81.1875 55.7083 81.3333 55.4583 81.4375 55.25C81.5417 55.0208 81.6146 54.8021 81.6562 54.5938C81.6771 54.3438 81.7083 53.9062 81.75 53.2812C81.7917 52.7604 81.8333 52.0208 81.875 51.0625C81.9167 50.1042 81.9583 48.8333 82 47.25C81.7083 47.25 81.3542 47.2604 80.9375 47.2812C80.5417 47.2812 80.1667 47.2917 79.8125 47.3125C79.3958 47.3333 78.9583 47.3438 78.5 47.3438C78.0417 47.3646 77.5625 47.3854 77.0625 47.4062C76.6458 47.4479 76.1771 47.4896 75.6562 47.5312C75.1562 47.5521 74.6562 47.5833 74.1562 47.625C74.1146 48.5 74.1146 49.2708 74.1562 49.9375C74.1979 50.5833 74.2604 51.1354 74.3438 51.5938C74.4271 52.1354 74.5312 52.6042 74.6562 53C74.7812 53.375 74.9167 53.75 75.0625 54.125C75.1875 54.4583 75.3333 54.8125 75.5 55.1875C75.6875 55.5625 75.875 55.8958 76.0625 56.1875C75.6667 56.1458 75.3021 56.1146 74.9688 56.0938C74.6354 56.0521 74.3438 56.0104 74.0938 55.9688C73.8021 55.9479 73.5208 55.9271 73.25 55.9062C72.9792 55.9062 72.6562 55.8958 72.2812 55.875C71.9479 55.8542 71.5312 55.8438 71.0312 55.8438C70.5312 55.8229 69.9479 55.8125 69.2812 55.8125C69.6771 55.4167 69.9896 55.0312 70.2188 54.6562C70.4688 54.2604 70.6458 53.9062 70.75 53.5938C70.875 53.2188 70.9583 52.875 71 52.5625C71.0208 52.2917 71.0312 51.7812 71.0312 51.0312C71.0521 50.2812 71.0521 49.4271 71.0312 48.4688C71.0312 47.4896 71.0208 46.4688 71 45.4062C70.9792 44.3229 70.9479 43.3125 70.9062 42.375C70.8854 41.4375 70.8542 40.6354 70.8125 39.9688C70.7917 39.2812 70.7708 38.8542 70.75 38.6875C70.6458 38.3125 70.4896 37.9062 70.2812 37.4688C70.0938 37.1146 69.8438 36.7083 69.5312 36.25C69.2188 35.7708 68.7917 35.2917 68.25 34.8125ZM90.0938 37.3438C89.7812 37.2396 89.5312 37.0625 89.3438 36.8125C89.1562 36.5417 89.0521 36.25 89.0312 35.9375C89.0312 35.625 89.1146 35.3229 89.2812 35.0312C89.4688 34.7188 89.75 34.4583 90.125 34.25C90.7292 33.9167 91.25 33.8333 91.6875 34C92.1458 34.1667 92.4792 34.4167 92.6875 34.75C92.7917 34.9167 92.8646 35.1458 92.9062 35.4375C92.9688 35.7083 92.9896 36.0104 92.9688 36.3438C92.9688 36.6562 92.9375 36.9688 92.875 37.2812C92.8125 37.5938 92.7188 37.8542 92.5938 38.0625C92.4896 38.2292 92.3646 38.3958 92.2188 38.5625C92.0938 38.7083 91.9375 38.8542 91.75 39C91.5833 39.1458 91.3854 39.2812 91.1562 39.4062L90.0312 39.3125C90.1771 39.1458 90.3125 39 90.4375 38.875C90.5625 38.7292 90.6667 38.6042 90.75 38.5C90.8333 38.3958 90.9167 38.3021 91 38.2188C91.125 38.0729 91.2292 37.9271 91.3125 37.7812C91.3958 37.6562 91.4688 37.5312 91.5312 37.4062C91.5938 37.2604 91.6042 37.1146 91.5625 36.9688C91.3958 37.1354 91.2292 37.25 91.0625 37.3125C90.8958 37.375 90.7396 37.4062 90.5938 37.4062C90.4271 37.4271 90.2604 37.4062 90.0938 37.3438ZM93.3125 35.6562C94.7708 35.6979 95.9792 35.7292 96.9375 35.75C97.9167 35.75 98.7083 35.75 99.3125 35.75H100.969H110.281C110.323 36.1667 110.354 36.5729 110.375 36.9688C110.417 37.3438 110.438 37.6771 110.438 37.9688C110.438 38.3229 110.427 38.6458 110.406 38.9375C110.385 39.2292 110.354 39.5417 110.312 39.875C110.271 40.1667 110.229 40.4792 110.188 40.8125C110.146 41.1458 110.073 41.4896 109.969 41.8438C109.677 40.7188 109.281 39.8646 108.781 39.2812C108.302 38.6979 107.812 38.2708 107.312 38C106.729 37.6875 106.115 37.5208 105.469 37.5C104.615 37.5417 103.948 37.6146 103.469 37.7188C102.99 37.8229 102.615 37.9688 102.344 38.1562C102.073 38.3438 101.865 38.5625 101.719 38.8125C101.594 39.0417 101.458 39.3021 101.312 39.5938C101.188 39.8438 101.073 40.2292 100.969 40.75C100.865 41.1875 100.76 41.7812 100.656 42.5312C100.573 43.2812 100.479 44.25 100.375 45.4375C100.938 45.2708 101.385 45.1146 101.719 44.9688C102.073 44.8229 102.354 44.6979 102.562 44.5938C102.792 44.4688 102.958 44.3542 103.062 44.25C103.146 44.125 103.271 43.8958 103.438 43.5625C103.562 43.2708 103.729 42.875 103.938 42.375C104.167 41.875 104.438 41.1875 104.75 40.3125C104.792 41.2708 104.812 42.0729 104.812 42.7188C104.812 43.3438 104.823 43.8542 104.844 44.25C104.844 44.7083 104.854 45.0729 104.875 45.3438V46.5312C104.875 46.9688 104.875 47.5625 104.875 48.3125C104.896 49.0417 104.927 49.9688 104.969 51.0938C104.719 50.3229 104.49 49.7188 104.281 49.2812C104.094 48.8229 103.927 48.4792 103.781 48.25C103.615 47.9792 103.469 47.7917 103.344 47.6875C103.198 47.6458 103 47.6042 102.75 47.5625C102.521 47.5417 102.229 47.5312 101.875 47.5312C101.542 47.5312 101.115 47.5833 100.594 47.6875C100.531 48.8333 100.521 49.7604 100.562 50.4688C100.625 51.1562 100.708 51.6875 100.812 52.0625C100.917 52.5 101.042 52.8125 101.188 53C101.375 53.1875 101.75 53.3438 102.312 53.4688C102.875 53.5729 103.51 53.6146 104.219 53.5938C104.948 53.5521 105.688 53.4271 106.438 53.2188C107.188 53.0104 107.854 52.6667 108.438 52.1875C108.875 51.7917 109.344 51.2917 109.844 50.6875C110.26 50.1667 110.719 49.5104 111.219 48.7188C111.74 47.9271 112.25 46.9688 112.75 45.8438C112.667 46.7812 112.604 47.5625 112.562 48.1875C112.542 48.7917 112.51 49.2812 112.469 49.6562C112.427 50.0938 112.396 50.4271 112.375 50.6562C112.375 50.9062 112.344 51.2604 112.281 51.7188C112.24 52.1146 112.167 52.6562 112.062 53.3438C111.979 54.0104 111.865 54.8646 111.719 55.9062C110.74 55.9271 109.812 55.9479 108.938 55.9688C108.062 55.9688 107.292 55.9792 106.625 56C105.833 56.0208 105.104 56.0417 104.438 56.0625C103.75 56.0625 102.99 56.0938 102.156 56.1562C101.427 56.1979 100.562 56.2604 99.5625 56.3438C98.5833 56.4271 97.5 56.5417 96.3125 56.6875C96.4167 55.2708 96.4896 53.9375 96.5312 52.6875C96.5938 51.4167 96.6354 50.3021 96.6562 49.3438C96.6771 48.2188 96.6771 47.1771 96.6562 46.2188C96.7604 43.8229 96.7188 41.8854 96.5312 40.4062C96.3438 38.9271 96.125 37.9792 95.875 37.5625C95.75 37.4167 95.5729 37.2396 95.3438 37.0312C95.1562 36.8646 94.8958 36.6667 94.5625 36.4375C94.2292 36.2083 93.8125 35.9479 93.3125 35.6562ZM113.562 34.5938C114.229 34.6146 114.812 34.625 115.312 34.625C115.812 34.6042 116.219 34.5938 116.531 34.5938H117.438C117.667 34.5729 117.948 34.5625 118.281 34.5625C118.573 34.5625 118.927 34.5625 119.344 34.5625C119.76 34.5625 120.24 34.5729 120.781 34.5938C120.948 35.1771 121.135 35.75 121.344 36.3125C121.573 36.8542 121.771 37.3438 121.938 37.7812C122.146 38.3021 122.354 38.7917 122.562 39.25C122.771 39.7083 123.021 40.2604 123.312 40.9062C123.562 41.4479 123.865 42.1146 124.219 42.9062C124.573 43.6771 124.99 44.5625 125.469 45.5625C125.698 44.9167 125.906 44.3229 126.094 43.7812C126.302 43.2396 126.479 42.7708 126.625 42.375C126.792 41.9167 126.927 41.5 127.031 41.125C127.135 40.75 127.25 40.2917 127.375 39.75C127.479 39.2917 127.594 38.7396 127.719 38.0938C127.865 37.4479 128.01 36.6979 128.156 35.8438C128.76 35.8438 129.302 35.8438 129.781 35.8438C130.26 35.8438 130.677 35.8333 131.031 35.8125C131.427 35.8125 131.781 35.8021 132.094 35.7812C132.427 35.7812 132.875 35.7604 133.438 35.7188C133.917 35.6771 134.552 35.6458 135.344 35.625C136.156 35.5833 137.156 35.5312 138.344 35.4688C137.906 35.7812 137.552 36.0938 137.281 36.4062C137.031 36.6979 136.833 36.9583 136.688 37.1875C136.521 37.4583 136.417 37.7188 136.375 37.9688C136.333 38.1771 136.292 38.6562 136.25 39.4062C136.229 40.1562 136.198 41.0521 136.156 42.0938C136.135 43.1146 136.115 44.2083 136.094 45.375C136.094 46.5417 136.104 47.6458 136.125 48.6875C136.146 49.7292 136.177 50.6354 136.219 51.4062C136.281 52.1562 136.365 52.6354 136.469 52.8438C136.615 53.0938 136.812 53.3854 137.062 53.7188C137.292 54.0104 137.583 54.3438 137.938 54.7188C138.312 55.0938 138.802 55.5104 139.406 55.9688C138.448 56.0104 137.646 56.0417 137 56.0625C136.375 56.0833 135.854 56.1042 135.438 56.125C134.958 56.1458 134.573 56.1562 134.281 56.1562C133.969 56.1562 133.542 56.1667 133 56.1875C132.521 56.2083 131.885 56.2396 131.094 56.2812C130.302 56.3021 129.281 56.3438 128.031 56.4062C128.323 56.0729 128.594 55.7396 128.844 55.4062C129.094 55.0729 129.302 54.7708 129.469 54.5C129.677 54.1875 129.854 53.8854 130 53.5938C130.146 53.1979 130.26 52.4792 130.344 51.4375C130.427 50.5417 130.49 49.2604 130.531 47.5938C130.573 45.9062 130.573 43.6458 130.531 40.8125C130.135 41.4583 129.781 42.1042 129.469 42.75C129.177 43.375 128.917 43.9479 128.688 44.4688C128.438 45.0729 128.208 45.6562 128 46.2188C127.792 46.8021 127.573 47.4479 127.344 48.1562C127.135 48.7604 126.885 49.4792 126.594 50.3125C126.323 51.1458 126.01 52.0625 125.656 53.0625L124.469 53.125C124.302 52.2917 124.135 51.5417 123.969 50.875C123.802 50.1875 123.635 49.6042 123.469 49.125C123.281 48.5625 123.094 48.0625 122.906 47.625C122.698 47.1875 122.469 46.6979 122.219 46.1562C121.99 45.6979 121.708 45.1562 121.375 44.5312C121.062 43.9062 120.698 43.2083 120.281 42.4375C120.073 44.5625 119.948 46.2917 119.906 47.625C119.865 48.9375 119.865 49.9583 119.906 50.6875C119.948 51.5625 120.01 52.1979 120.094 52.5938C120.219 52.9479 120.417 53.3438 120.688 53.7812C120.917 54.1562 121.229 54.6042 121.625 55.125C122.042 55.625 122.573 56.1875 123.219 56.8125C122.76 56.8125 122.281 56.8125 121.781 56.8125C121.281 56.8125 120.823 56.8229 120.406 56.8438C119.906 56.8646 119.417 56.875 118.938 56.875C118.438 56.8958 117.854 56.9271 117.188 56.9688C116.604 57.0104 115.906 57.0521 115.094 57.0938C114.281 57.1354 113.344 57.2083 112.281 57.3125C112.74 57.0208 113.115 56.7396 113.406 56.4688C113.698 56.1771 113.927 55.9167 114.094 55.6875C114.302 55.4167 114.458 55.1458 114.562 54.875C114.625 54.7083 114.677 54.3438 114.719 53.7812C114.781 53.2188 114.833 52.5312 114.875 51.7188C114.938 50.9062 114.979 50 115 49C115.042 48 115.073 46.9896 115.094 45.9688C115.135 44.9271 115.167 43.9167 115.188 42.9375C115.208 41.9375 115.219 41.0417 115.219 40.25C115.24 39.4375 115.25 38.7604 115.25 38.2188C115.25 37.6771 115.25 37.3333 115.25 37.1875C115.188 36.875 115.094 36.5625 114.969 36.25C114.865 35.9792 114.698 35.6979 114.469 35.4062C114.24 35.1146 113.938 34.8438 113.562 34.5938ZM149.188 35.0312C149.812 35.1562 150.344 35.25 150.781 35.3125C151.219 35.375 151.583 35.4271 151.875 35.4688C152.208 35.5104 152.49 35.5312 152.719 35.5312C152.948 35.5312 153.26 35.5208 153.656 35.5C154.01 35.4792 154.458 35.4688 155 35.4688C155.542 35.4479 156.229 35.4167 157.062 35.375C156.583 35.7083 156.198 35.9896 155.906 36.2188C155.615 36.4479 155.396 36.6458 155.25 36.8125C155.062 37 154.948 37.1562 154.906 37.2812C154.865 37.3646 154.823 37.6771 154.781 38.2188C154.74 38.7396 154.698 39.4062 154.656 40.2188C154.635 41.0104 154.635 41.9062 154.656 42.9062C154.677 43.8854 154.729 44.8854 154.812 45.9062C154.917 46.9271 155.062 47.9167 155.25 48.875C155.438 49.8125 155.688 50.6354 156 51.3438C156.333 52.0521 156.729 52.6042 157.188 53C157.667 53.3958 158.24 53.5417 158.906 53.4375C159.781 53.3125 160.49 52.8854 161.031 52.1562C161.573 51.4271 161.979 50.5417 162.25 49.5C162.542 48.4583 162.719 47.3438 162.781 46.1562C162.865 44.9479 162.875 43.8229 162.812 42.7812C162.771 41.7188 162.688 40.8021 162.562 40.0312C162.438 39.2604 162.323 38.7812 162.219 38.5938C162.094 38.3854 161.927 38.1458 161.719 37.875C161.552 37.6458 161.333 37.3854 161.062 37.0938C160.792 36.7812 160.479 36.4479 160.125 36.0938C160.771 36.1146 161.354 36.1354 161.875 36.1562C162.396 36.1562 162.833 36.1667 163.188 36.1875C163.604 36.2083 163.979 36.2292 164.312 36.25C164.646 36.2708 165.062 36.3021 165.562 36.3438C165.979 36.3854 166.51 36.4271 167.156 36.4688C167.823 36.5104 168.615 36.5729 169.531 36.6562C169.177 36.7396 168.885 36.8542 168.656 37C168.448 37.1458 168.281 37.3021 168.156 37.4688C168.01 37.6562 167.906 37.8438 167.844 38.0312C167.781 38.1979 167.729 38.6979 167.688 39.5312C167.667 40.3438 167.625 41.3333 167.562 42.5C167.521 43.6458 167.448 44.8958 167.344 46.25C167.24 47.5833 167.073 48.8542 166.844 50.0625C166.635 51.2708 166.354 52.3438 166 53.2812C165.667 54.2188 165.229 54.8646 164.688 55.2188C163.896 55.7396 163.062 56.1146 162.188 56.3438C161.312 56.5521 160.427 56.6667 159.531 56.6875C158.635 56.6875 157.75 56.6146 156.875 56.4688C156.021 56.3021 155.198 56.1042 154.406 55.875C153.594 55.625 152.917 55.0625 152.375 54.1875C151.854 53.3125 151.438 52.2812 151.125 51.0938C150.833 49.8854 150.615 48.5938 150.469 47.2188C150.344 45.8229 150.26 44.4792 150.219 43.1875C150.198 41.8958 150.198 40.7292 150.219 39.6875C150.26 38.625 150.292 37.8229 150.312 37.2812C150.312 37.0104 150.271 36.75 150.188 36.5C150.125 36.2708 150.01 36.0312 149.844 35.7812C149.698 35.5104 149.479 35.2604 149.188 35.0312ZM167.906 34.625C168.698 34.8125 169.406 34.9583 170.031 35.0625C170.677 35.1458 171.219 35.2083 171.656 35.25C172.177 35.3125 172.635 35.3333 173.031 35.3125C173.531 35.2917 174.156 35.2188 174.906 35.0938C175.656 34.9688 176.448 34.8438 177.281 34.7188C178.115 34.5938 178.938 34.4896 179.75 34.4062C180.562 34.3229 181.271 34.3125 181.875 34.375C182.479 34.4375 183.115 34.5833 183.781 34.8125C184.448 35.0208 185.073 35.3125 185.656 35.6875C186.24 36.0417 186.74 36.4792 187.156 37C187.594 37.5208 187.865 38.125 187.969 38.8125C188.073 39.4792 188.01 40.1979 187.781 40.9688C187.552 41.7188 187.188 42.4583 186.688 43.1875C186.188 43.8958 185.562 44.5521 184.812 45.1562C184.062 45.7604 183.229 46.25 182.312 46.625C181.583 46.8958 180.792 47.1042 179.938 47.25C179.208 47.375 178.354 47.4583 177.375 47.5C176.417 47.5208 175.396 47.4167 174.312 47.1875C174.167 47.7917 174.083 48.3542 174.062 48.875C174.062 49.375 174.083 49.8229 174.125 50.2188C174.188 50.6771 174.271 51.0938 174.375 51.4688C174.5 51.8438 174.656 52.2812 174.844 52.7812C175.01 53.1979 175.198 53.7083 175.406 54.3125C175.635 54.8958 175.906 55.5521 176.219 56.2812C175.844 56.2812 175.479 56.2917 175.125 56.3125C174.771 56.3125 174.448 56.3229 174.156 56.3438C173.823 56.3646 173.51 56.3854 173.219 56.4062C172.885 56.4271 172.51 56.4688 172.094 56.5312C171.74 56.5729 171.292 56.6354 170.75 56.7188C170.229 56.8021 169.635 56.9062 168.969 57.0312C169.406 56.4062 169.75 55.8333 170 55.3125C170.271 54.7708 170.469 54.3021 170.594 53.9062C170.74 53.4479 170.833 53.0312 170.875 52.6562C170.896 52.3438 170.896 51.7917 170.875 51C170.875 50.2083 170.865 49.2917 170.844 48.25C170.823 47.2083 170.792 46.1146 170.75 44.9688C170.708 43.8229 170.656 42.75 170.594 41.75C170.531 40.7292 170.458 39.8542 170.375 39.125C170.312 38.3958 170.25 37.9167 170.188 37.6875C170.104 37.4167 169.958 37.125 169.75 36.8125C169.583 36.5417 169.344 36.2292 169.031 35.875C168.74 35.5 168.365 35.0833 167.906 34.625ZM174.375 40.7812C174.354 40.9896 174.344 41.2083 174.344 41.4375C174.344 41.875 174.375 42.4375 174.438 43.125C174.583 43.4792 174.76 43.7708 174.969 44C175.198 44.2292 175.438 44.4062 175.688 44.5312C175.958 44.6562 176.229 44.7396 176.5 44.7812C176.771 44.8229 177.042 44.8438 177.312 44.8438C177.938 44.8229 178.594 44.6771 179.281 44.4062C180.198 44.0104 180.844 43.4479 181.219 42.7188C181.594 41.9896 181.792 41.2396 181.812 40.4688C181.833 39.6979 181.698 38.9896 181.406 38.3438C181.135 37.6979 180.802 37.2604 180.406 37.0312C180.073 36.8854 179.646 36.8229 179.125 36.8438C178.667 36.8646 178.094 36.9792 177.406 37.1875C176.719 37.3958 175.875 37.7708 174.875 38.3125C174.771 38.6875 174.688 39.0208 174.625 39.3125C174.562 39.6042 174.51 39.8646 174.469 40.0938C174.427 40.3438 174.396 40.5729 174.375 40.7812Z" fill="#EEF1DE"/>
<defs>
<filter id="filter0_i_128_328" x="150.144" y="10.4576" width="52.6426" height="54.8453" filterUnits="userSpaceOnUse" color-interpolation-filters="sRGB">
<feFlood flood-opacity="0" result="BackgroundImageFix"/>
<feBlend mode="normal" in="SourceGraphic" in2="BackgroundImageFix" result="shape"/>
<feColorMatrix in="SourceAlpha" type="matrix" values="0 0 0 0 0 0 0 0 0 0 0 0 0 0 0 0 0 0 127 0" result="hardAlpha"/>
<feOffset dy="4"/>
<feGaussianBlur stdDeviation="2"/>
<feComposite in2="hardAlpha" operator="arithmetic" k2="-1" k3="1"/>
<feColorMatrix type="matrix" values="0 0 0 0 0 0 0 0 0 0 0 0 0 0 0 0 0 0 0.25 0"/>
<feBlend mode="normal" in2="shape" result="effect1_innerShadow_128_328"/>
</filter>
<filter id="filter1_i_128_328" x="150.144" y="10.4576" width="52.6426" height="54.8453" filterUnits="userSpaceOnUse" color-interpolation-filters="sRGB">
<feFlood flood-opacity="0" result="BackgroundImageFix"/>
<feBlend mode="normal" in="SourceGraphic" in2="BackgroundImageFix" result="shape"/>
<feColorMatrix in="SourceAlpha" type="matrix" values="0 0 0 0 0 0 0 0 0 0 0 0 0 0 0 0 0 0 127 0" result="hardAlpha"/>
<feOffset dy="4"/>
<feGaussianBlur stdDeviation="2"/>
<feComposite in2="hardAlpha" operator="arithmetic" k2="-1" k3="1"/>
<feColorMatrix type="matrix" values="0 0 0 0 0 0 0 0 0 0 0 0 0 0 0 0 0 0 0.25 0"/>
<feBlend mode="normal" in2="shape" result="effect1_innerShadow_128_328"/>
</filter>
<filter id="filter2_f_128_328" x="150.924" y="11.1551" width="52.0254" height="50.4797" filterUnits="userSpaceOnUse" color-interpolation-filters="sRGB">
<feFlood flood-opacity="0" result="BackgroundImageFix"/>
<feBlend mode="normal" in="SourceGraphic" in2="BackgroundImageFix" result="shape"/>
<feGaussianBlur stdDeviation="2" result="effect1_foregroundBlur_128_328"/>
</filter>
<filter id="filter3_f_128_328" x="154.008" y="14.8382" width="44.7402" height="43.1682" filterUnits="userSpaceOnUse" color-interpolation-filters="sRGB">
<feFlood flood-opacity="0" result="BackgroundImageFix"/>
<feBlend mode="normal" in="SourceGraphic" in2="BackgroundImageFix" result="shape"/>
<feGaussianBlur stdDeviation="2" result="effect1_foregroundBlur_128_328"/>
</filter>
<filter id="filter4_i_128_328" x="163.059" y="23.6916" width="26.4365" height="29.5138" filterUnits="userSpaceOnUse" color-interpolation-filters="sRGB">
<feFlood flood-opacity="0" result="BackgroundImageFix"/>
<feBlend mode="normal" in="SourceGraphic" in2="BackgroundImageFix" result="shape"/>
<feColorMatrix in="SourceAlpha" type="matrix" values="0 0 0 0 0 0 0 0 0 0 0 0 0 0 0 0 0 0 127 0" result="hardAlpha"/>
<feOffset dy="4"/>
<feGaussianBlur stdDeviation="2"/>
<feComposite in2="hardAlpha" operator="arithmetic" k2="-1" k3="1"/>
<feColorMatrix type="matrix" values="0 0 0 0 0 0 0 0 0 0 0 0 0 0 0 0 0 0 0.25 0"/>
<feBlend mode="normal" in2="shape" result="effect1_innerShadow_128_328"/>
</filter>
</defs>
</svg>
